<?xml version="1.0" standalone="no"?>
<!DOCTYPE svg PUBLIC "-//W3C//DTD SVG 20010904//EN"
 "http://www.w3.org/TR/2001/REC-SVG-20010904/DTD/svg10.dtd">
<svg version="1.0" xmlns="http://www.w3.org/2000/svg"
 width="260.000000pt" height="260.000000pt" viewBox="0 0 260.000000 260.000000"
 preserveAspectRatio="xMidYMid meet">
<metadata>
Created by potrace 1.11, written by Peter Selinger 2001-2013
</metadata>
<g transform="translate(0.000000,260.000000) scale(0.100000,-0.100000)"
fill="#000000" stroke="none">
<path d="M505 2138 c-6 -17 -35 -141 -35 -150 0 -5 113 -8 250 -8 138 0 250
-2 250 -5 0 -2 -20 -87 -44 -187 -38 -155 -56 -234 -61 -258 -15 -80 -95 -389
-117 -454 -54 -162 -123 -238 -240 -266 -103 -25 -240 8 -329 80 l-37 29 -51
-77 -51 -77 27 -23 c71 -60 214 -107 340 -111 158 -5 294 42 388 133 81 80
134 202 189 436 27 114 58 245 113 470 19 80 37 156 39 169 6 31 63 270 70
294 5 16 -16 17 -346 17 -271 0 -352 -3 -355 -12z"/>
<path d="M1470 1933 c-29 -120 -70 -290 -91 -378 -21 -88 -52 -218 -69 -290
-17 -71 -34 -141 -36 -155 -3 -14 -18 -77 -34 -140 -16 -63 -31 -126 -34 -140
-2 -14 -11 -54 -20 -90 -9 -36 -16 -68 -16 -72 0 -7 189 -12 190 -5 1 1 38
155 84 342 l84 340 271 3 c213 2 271 0 271 -10 0 -7 -12 -60 -26 -118 -14 -58
-28 -115 -30 -127 -6 -29 -93 -393 -100 -415 -5 -16 4 -18 95 -18 l99 0 11 47
c6 27 14 59 17 73 3 14 18 78 34 142 16 65 32 128 34 140 7 33 11 48 46 193
32 132 44 182 125 520 25 105 54 225 65 268 30 116 35 108 -77 105 l-97 -3 -9
-40 c-15 -66 -106 -445 -124 -517 l-17 -68 -273 0 -273 0 5 23 c3 12 35 146
70 297 36 151 68 283 71 293 5 15 -4 17 -94 17 l-100 0 -52 -217z"/>
</g>
</svg>
